<svg
      xmlns="http://www.w3.org/2000/svg"
      width="640.413"
      height="134.653"
      version="1.1"
      viewBox="0 0 640.413 134.653"
      xmlSpace="preserve"
    >
      <g transform="matrix(1.33333 0 0 -1.33333 0 134.653)">
        <g
          fill="#fff"
          fillOpacity="1"
          fillRule="nonzero"
          stroke="none"
          transform="scale(.1)"
        >
          <path d="M1690.87 398.914c-39.34-128.965-167.22-216.398-300.56-216.398-81.96 0-166.12 33.879-225.14 90.703-65.58 62.316-98.37 146.465-98.37 236.074 0 177.062 146.46 318.047 322.42 318.047 133.35 0 265.58-89.617 301.65-220.77h-163.95c-31.69 53.555-77.6 78.7-139.89 78.7-103.82 0-174.86-77.598-174.86-178.165 0-107.089 76.51-182.519 182.51-182.519 53.56 0 104.93 29.512 132.24 74.328h163.95"></path>
          <path d="M2073.05 685.27c-107.11 1.085-181.42-79.793-181.42-185.801 0-99.453 80.87-175.965 179.24-174.883 104.92-1.082 177.06 77.598 177.06 181.437 0 101.649-72.14 180.332-174.88 179.247zm312.58-483.086h-133.34v81.964h-2.19c-43.72-62.296-128.95-101.632-205.46-101.632-94 0-170.49 39.336-222.96 101.632-48.1 57.93-75.41 136.622-75.41 220.79 0 84.152 21.85 154.093 77.59 217.48 61.22 71.047 136.63 104.922 225.15 104.922 83.07 0 155.19-37.149 203.28-104.922v85.254h133.34V202.184"></path>
          <path d="M2630.44 504.938c0-52.469 17.48-99.461 56.82-134.434 30.61-27.332 75.42-45.918 115.85-45.918 102.74 0 179.25 79.785 179.25 181.437 0 96.18-75.42 179.247-173.78 179.247-101.64 0-178.14-79.793-178.14-180.332zm-136.62 302.734h133.33V728.98h2.18c44.82 66.672 112.58 98.36 194.55 98.36 88.54 0 157.39-28.406 219.68-98.36 55.74-57.929 84.16-138.808 84.16-224.042 0-171.602-126.79-322.422-303.84-322.422-76.51 0-135.52 25.136-182.52 85.246h-2.18V0h-145.36v807.672"></path>
          <path d="M3515.68 685.27c-107.11 1.085-181.43-79.793-181.43-185.801 0-99.453 80.87-175.965 179.24-174.883 104.93-1.082 177.06 77.598 177.06 181.437 0 101.649-72.13 180.332-174.87 179.247zm312.58-483.086h-133.34v81.964h-2.2c-43.71-62.296-128.94-101.632-205.46-101.632-93.99 0-170.5 39.336-222.96 101.632-48.09 57.93-75.42 136.622-75.42 220.79 0 84.152 21.87 154.093 77.61 217.48 61.2 71.047 136.62 104.922 225.15 104.922 83.06 0 155.18-37.149 203.28-104.922v85.254h133.34V202.184"></path>
          <path d="M4073.06 512.574c0-106.004 73.23-187.988 182.52-187.988 102.74 0 173.77 77.598 173.77 179.25 0 100.547-69.95 181.434-173.77 181.434-97.28 0-182.52-72.137-182.52-172.696zm-136.62 497.286h145.36V744.273h2.19c40.44 59.016 118.04 83.067 186.89 83.067 177.05 0 303.83-151.914 303.83-322.402 1.1-73.243-29.51-163.946-77.6-220.79-53.56-65.566-137.71-101.632-221.86-101.632-83.07 0-157.39 30.597-203.29 101.632h-2.18v-81.964h-133.34v807.676"></path>
          <path d="M4657.75 1009.86h145.35V182.516h-145.35v827.344"></path>
          <path d="M921.285 462.203c-15.312 0-30.789 4.426-44.422 13.645l-345.351 233.64c-22.414 15.168-51.856 14.942-74.035-.554L124.898 476.531c-35.937-25.129-85.457-16.34-110.574 19.598-25.117 35.957-16.347 85.461 19.61 110.578l414.16 289.414c26.941 18.848 62.734 19.129 89.98.684l427.774-289.414c36.332-24.582 45.862-73.938 21.277-110.274-15.34-22.687-40.359-34.914-65.84-34.914"></path>
          <path d="M452.781 254.566L220.465 413.074c-27.52 18.778-27.52 59.356 0 78.133l232.316 158.516c26.367 17.988 61.055 17.988 87.422 0l221.719-151.278c32.605-22.257 32.605-70.351 0-92.609l-221.719-151.27c-26.367-17.996-61.055-17.996-87.422 0"></path>
        </g>
      </g>
    </svg>